<svg viewBox="0 0 120 120" fill="none" xmlns="http://www.w3.org/2000/svg">
  <defs>
    <linearGradient id="ceta-pink-grad" x1="120" y1="20" x2="20" y2="100" gradientUnits="userSpaceOnUse">
      <stop offset="0%" stopColor="#ff477e" />
      <stop offset="50%" stopColor="#ff477e" />
      <stop offset="100%" stopColor="#2E3192" />
    </linearGradient>
    <linearGradient id="ceta-doc-grad" x1="45" y1="35" x2="85" y2="75" gradientUnits="userSpaceOnUse">
      <stop offset="0%" stopColor="#4F46E5" />
      <stop offset="100%" stopColor="#2E3192" />
    </linearGradient>
    <linearGradient id="ceta-fold-grad" x1="70" y1="65" x2="85" y2="80" gradientUnits="userSpaceOnUse">
      <stop offset="0%" stopColor="#BAE6FD" />
      <stop offset="100%" stopColor="#38BDF8" />
    </linearGradient>
  </defs>
  <path d="M 96 26 C 96 26 90 20 78 20 C 42 20 20 42 20 70 C 20 98 42 110 70 110 C 90 110 96 98 96 98 L 86 88 C 86 88 80 94 70 94 C 52 94 36 84 36 70 C 36 56 52 36 70 36 L 86 36 L 96 26 Z" fill="url(#ceta-pink-grad)" />
  <g>
    <path d="M 52 38 L 88 38 L 88 68 L 76 80 L 52 80 Z" fill="url(#ceta-doc-grad)" />
    <rect x="60" y="48" width="18" height="3" rx="1.5" fill="#FFFFFF" fillOpacity="0.9" />
    <rect x="60" y="56" width="18" height="3" rx="1.5" fill="#FFFFFF" fillOpacity="0.9" />
    <path d="M 76 80 L 88 68 L 76 68 Z" fill="url(#ceta-fold-grad)" />
  </g>
  <g opacity="0.95">
    <rect x="98" y="63" width="14" height="4.5" rx="2.25" fill="#ff477e" />
    <rect x="103" y="71" width="11" height="4.5" rx="2.25" fill="#ff477e" />
    <rect x="95" y="79" width="16" height="4.5" rx="2.25" fill="#ff477e" />
  </g>
</svg>
